# xmcd
#
# Track frame offsets:
#	150
#	30298
#	47607
#	74399
#	93384
#	119036
#	127741
#	149426
#
# Disc length: 2115 seconds
#
# Revision: 1
# Processed by: cddbd v1.5.1PL0 Copyright (c) Steve Scherf et al.
# Submitted via: EasyCDDAExtractor 8.0.2.1
#
DISCID=6a084108
DTITLE=Ozzy Osbourne - Long Beach Arena Long Beach 31-12-88 Disc 2
DYEAR=1988
DGENRE=Hard Rock
TTITLE0=Fire In The Sky
TTITLE1=Miracle Man
TTITLE2=Suicide Solution
TTITLE3=Iron Man
TTITLE4=Crazy Train
TTITLE5=Happy New Year!
TTITLE6=Bark At The Moon
TTITLE7=Paranoid
EXTD=
EXTT0=
EXTT1=
EXTT2=
EXTT3=
EXTT4=
EXTT5=
EXTT6=
EXTT7=
PLAYORDER=
